<?xml version="1.0" standalone="no"?>
<!DOCTYPE svg PUBLIC "-//W3C//DTD SVG 20010904//EN"
 "http://www.w3.org/TR/2001/REC-SVG-20010904/DTD/svg10.dtd">
<svg version="1.0" xmlns="http://www.w3.org/2000/svg"
 width="383.000000pt" height="365.000000pt" viewBox="0 0 383.000000 365.000000"
 preserveAspectRatio="xMidYMid meet">

<g transform="translate(0.000000,365.000000) scale(0.100000,-0.100000)"
fill="#000000" stroke="none">
<path d="M1875 3278 c-11 -6 -33 -23 -50 -38 -16 -15 -80 -60 -142 -100 -94
-62 -121 -85 -168 -148 -30 -40 -55 -77 -55 -81 0 -13 -49 -31 -67 -25 -10 4
-47 17 -82 31 -81 31 -197 33 -292 4 -81 -25 -170 -41 -225 -41 -54 0 -67 -16
-66 -88 1 -31 -8 -91 -20 -132 -32 -114 -29 -213 10 -322 18 -47 32 -93 32
-100 0 -8 -14 -24 -31 -37 -47 -35 -26 -47 77 -44 79 1 92 -1 133 -25 54 -31
71 -46 71 -63 0 -8 10 -9 31 -5 17 3 43 6 56 6 17 0 24 5 21 17 -2 10 -31 26
-83 43 -72 24 -218 93 -214 102 0 2 -11 27 -26 55 -14 29 -29 75 -32 103 -3
28 -10 53 -14 56 -14 8 -10 42 5 51 12 7 13 16 3 51 -8 32 -8 53 1 87 7 25 12
61 12 80 0 21 6 37 16 43 16 9 16 11 0 33 -9 13 -16 32 -16 42 0 17 5 18 33
12 33 -8 40 -8 97 -1 46 6 120 33 142 53 13 11 26 13 50 8 18 -4 65 -8 103 -9
55 -1 77 -6 102 -24 17 -12 38 -19 46 -16 25 9 57 -14 57 -42 0 -24 48 -100
57 -90 2 2 -3 29 -12 61 -17 59 -15 82 5 46 6 -12 8 -21 4 -21 -4 0 9 -14 28
-30 33 -28 55 -70 49 -94 -1 -5 2 -12 6 -15 5 -3 23 -37 42 -75 26 -56 35 -66
42 -53 7 11 2 30 -15 64 -82 159 -100 204 -87 225 9 15 10 23 0 34 -10 12 -8
23 11 57 13 23 36 57 52 75 15 18 28 39 28 47 0 20 63 60 131 84 31 10 68 31
83 46 18 18 34 25 47 22 11 -3 34 -1 50 5 39 13 79 -3 79 -32 0 -16 7 -20 33
-20 26 0 42 -10 75 -42 23 -24 52 -59 65 -78 12 -19 32 -36 42 -38 11 -2 27
-11 37 -19 18 -16 31 -53 18 -53 -4 0 -2 -17 6 -37 20 -58 18 -82 -11 -95 -14
-6 -28 -23 -31 -37 -9 -41 -26 -81 -34 -81 -5 0 -13 -12 -18 -27 -6 -16 -17
-37 -25 -48 -15 -20 -17 -19 -59 20 -23 22 -34 30 -24 18 11 -13 15 -23 11
-23 -4 0 4 -10 18 -23 31 -26 36 -42 9 -28 -32 17 -14 -44 24 -84 20 -21 34
-47 34 -61 0 -20 4 -24 23 -20 103 23 168 25 229 10 35 -8 73 -18 86 -21 13
-3 26 -13 30 -22 3 -9 16 -29 29 -45 15 -18 23 -39 21 -55 -3 -29 26 -80 35
-61 4 7 5 6 3 -1 -1 -7 -10 -13 -20 -15 -31 -4 -37 -19 -42 -98 -5 -76 -5 -77
16 -66 29 16 50 6 47 -22 -2 -20 4 -24 38 -28 46 -6 54 -24 32 -70 -9 -16 -13
-39 -10 -50 3 -11 1 -26 -4 -33 -6 -6 -13 -41 -17 -76 -3 -36 -15 -83 -26
-105 -37 -78 -40 -93 -24 -107 9 -7 12 -20 8 -32 -6 -19 -6 -19 27 -1 50 29
150 126 199 193 25 34 48 61 53 61 13 0 -31 -72 -76 -125 -56 -65 -186 -168
-204 -161 -30 12 -64 -6 -82 -45 l-19 -39 29 0 c42 0 50 -27 15 -52 -25 -19
-26 -23 -20 -81 3 -34 11 -68 16 -74 18 -23 1 -41 -39 -41 -21 0 -51 -7 -67
-16 -27 -14 -32 -13 -68 5 -22 11 -74 29 -116 40 -41 10 -87 26 -100 35 -23
15 -26 14 -51 -9 -20 -20 -30 -23 -43 -16 -15 8 -18 6 -18 -16 0 -14 -5 -25
-11 -25 -6 0 -8 9 -4 21 5 15 4 19 -4 15 -17 -11 -13 -37 10 -75 24 -39 19
-76 -11 -86 -12 -4 -32 -24 -46 -46 -13 -21 -29 -39 -34 -39 -5 0 -12 -11 -16
-25 -6 -24 -31 -45 -53 -45 -21 0 -31 38 -22 84 l8 45 -38 -20 c-48 -24 -61
-24 -85 2 -14 15 -16 24 -7 37 8 14 6 23 -11 44 -22 27 -95 68 -121 68 -9 0
-27 11 -41 25 -19 20 -31 23 -57 18 -17 -3 -36 -9 -42 -13 -25 -19 -76 -21
-102 -5 -25 17 -26 16 -57 -15 l-31 -32 165 5 c168 4 183 -3 45 -22 -97 -14
-169 -13 -220 3 -36 11 -40 15 -37 41 2 16 11 40 20 53 15 24 15 24 -5 18 -34
-11 -45 14 -35 80 10 64 5 125 -11 136 -7 4 -5 15 6 32 9 14 17 28 17 30 0 12
-60 35 -75 30 -29 -12 -201 134 -181 154 3 3 6 1 6 -5 0 -5 7 -10 15 -10 10 0
14 6 10 14 -3 8 -5 19 -5 24 0 6 -8 8 -18 5 -12 -4 -25 3 -38 21 -33 46 -35
61 -10 80 12 10 29 29 36 42 23 44 91 110 120 116 19 4 30 13 32 28 2 15 13
25 33 31 26 8 31 14 32 45 4 70 8 86 27 97 13 8 15 13 7 18 -12 8 -15 59 -3
70 4 4 12 42 17 84 l10 77 35 0 c19 0 46 6 60 12 57 25 138 36 192 25 29 -5
74 -8 101 -5 44 5 47 7 47 34 0 19 12 42 35 68 20 22 35 49 35 63 0 30 17 48
47 48 13 0 32 9 42 19 16 16 26 18 53 11 18 -5 46 -8 62 -7 18 1 31 -4 37 -15
5 -10 14 -26 19 -35 6 -10 13 -26 16 -35 7 -20 39 -24 50 -6 4 7 3 8 -4 4 -7
-4 -16 2 -21 17 -5 13 -17 27 -26 31 -9 3 -15 11 -13 18 11 32 -94 103 -136
92 -20 -5 -97 -67 -138 -111 -138 -149 -143 -153 -178 -153 -355 -1 -366 -8
-373 -238 -4 -142 -18 -176 -91 -229 -68 -49 -184 -161 -201 -194 -11 -20 -12
-35 -4 -64 6 -20 13 -35 16 -32 6 6 53 -33 53 -44 0 -10 -32 -4 -59 11 -31 16
-26 -1 16 -56 21 -27 38 -55 39 -62 2 -8 6 -21 10 -30 18 -42 5 -54 -35 -32
-16 8 -19 4 -25 -29 -8 -52 -23 -63 -69 -50 -20 5 -39 14 -42 19 -12 19 -55 9
-88 -20 -19 -16 -37 -30 -40 -30 -12 0 -62 53 -59 62 1 5 -2 7 -7 4 -9 -6 -71
58 -71 74 0 5 -14 16 -30 25 -17 9 -30 22 -30 30 0 7 -10 15 -23 17 -16 2 -23
11 -25 31 -2 19 -11 31 -28 38 -17 6 -24 15 -22 27 2 10 -7 24 -24 34 -31 20
-29 34 9 76 14 15 45 58 70 97 25 38 56 78 69 88 13 10 29 30 36 45 7 15 34
38 60 52 30 16 48 32 51 47 6 33 11 35 -112 -42 -17 -11 -66 -69 -108 -128
-41 -60 -93 -122 -114 -139 -43 -35 -48 -52 -22 -81 10 -11 12 -17 6 -13 -7 4
-13 3 -13 -3 0 -5 10 -13 21 -16 17 -6 19 -9 8 -16 -8 -5 -11 -9 -6 -10 4 -1
10 -2 15 -3 4 -1 13 -5 20 -9 6 -5 12 -5 12 0 0 13 27 -42 40 -84 28 -84 112
-174 225 -240 33 -19 70 -47 83 -61 25 -28 25 -38 -2 -110 -29 -77 -31 -176
-7 -298 11 -60 22 -143 23 -184 l3 -75 47 -12 c26 -6 62 -22 80 -35 18 -14 49
-31 68 -38 19 -7 49 -19 65 -25 17 -7 55 -23 85 -35 74 -31 150 -48 245 -55
50 -4 86 -12 97 -22 9 -8 21 -12 27 -9 5 4 24 -7 41 -24 17 -16 34 -30 38 -30
4 -1 18 -14 32 -30 13 -17 29 -30 35 -30 6 0 20 -8 31 -18 10 -10 35 -26 54
-35 19 -10 58 -31 85 -48 28 -16 61 -35 75 -41 43 -19 84 -38 100 -47 46 -25
63 -31 121 -43 49 -10 63 -10 67 0 4 14 52 16 52 2 0 -11 185 -9 196 3 4 4 16
7 26 7 10 0 21 7 25 15 4 13 15 14 49 9 30 -4 44 -3 44 5 0 6 11 11 25 11 18
0 25 5 25 20 0 15 7 20 25 20 14 0 25 -4 25 -9 0 -5 13 -11 29 -13 34 -5 71
21 71 51 0 16 6 21 25 21 14 0 25 4 25 9 0 6 20 13 45 17 25 3 45 10 45 15 0
5 11 9 25 9 14 0 25 4 25 9 0 5 23 12 50 16 39 5 50 11 50 25 0 13 11 19 44
24 36 6 45 11 48 29 2 12 11 23 22 25 18 4 51 30 105 83 14 14 34 28 44 32 9
4 20 14 24 24 7 17 39 53 48 53 3 0 5 -7 5 -15 0 -8 4 -15 9 -15 5 0 12 23 16
50 6 47 9 50 35 50 26 0 29 3 35 50 6 40 11 50 26 50 12 0 19 7 19 19 0 11 5
23 10 26 6 3 10 26 10 50 0 24 5 47 10 50 6 3 10 16 11 28 0 12 3 16 6 10 7
-19 53 -16 53 2 0 8 -9 15 -20 15 -13 0 -20 7 -20 20 0 13 7 20 20 20 15 0 20
7 20 25 0 18 -5 25 -20 25 -15 0 -20 7 -20 25 0 23 4 25 44 25 l43 0 0 48 -1
47 -48 -3 c-39 -3 -48 -7 -48 -23 0 -16 -8 -19 -50 -19 l-50 0 0 -50 c0 -43
-3 -50 -20 -50 -11 0 -20 5 -20 10 0 6 -11 10 -25 10 -14 0 -25 -4 -25 -10 0
-5 -4 -10 -10 -10 -6 0 -10 30 -10 69 0 54 3 70 16 75 12 5 15 14 11 35 -7 33
13 56 56 63 27 5 27 5 27 -48 l0 -54 48 0 c26 0 52 4 58 8 7 4 12 38 12 87 0
44 0 86 1 93 1 7 16 12 40 12 35 0 39 2 37 25 -1 19 -7 25 -23 25 -18 0 -23 6
-23 25 0 17 -6 25 -17 25 -15 0 -15 2 1 19 10 11 15 25 11 30 -3 6 1 11 9 11
9 0 18 12 22 28 3 15 13 42 21 61 24 53 12 133 -27 179 -46 56 -50 61 -50 68
0 3 -14 24 -31 45 -17 21 -28 43 -25 48 3 5 -3 11 -14 14 -11 3 -20 13 -20 22
0 10 -10 27 -23 39 -12 11 -29 30 -37 42 -16 23 -68 46 -55 24 9 -15 -26 2
-47 23 -7 7 -44 30 -81 52 -82 48 -70 60 15 16 l60 -31 -37 34 c-25 23 -32 35
-23 39 7 3 9 6 3 6 -6 1 -9 26 -6 63 3 60 -14 202 -27 223 -4 6 -7 15 -9 20
-1 6 -17 55 -36 110 -19 55 -40 135 -47 178 -8 45 -17 76 -23 74 -13 -4 -16
-177 -5 -252 5 -32 -2 -14 -19 48 -15 53 -32 96 -36 94 -8 -2 -36 -72 -37 -89
0 -5 5 -7 12 -5 30 6 56 -145 26 -155 -7 -3 -15 -35 -19 -77 -7 -79 -17 -99
-44 -84 -12 7 -24 3 -47 -19 -16 -15 -36 -28 -42 -28 -7 0 -23 -12 -37 -26
-33 -36 -96 -66 -120 -59 -10 4 -17 11 -14 16 4 5 1 9 -4 9 -6 0 -11 7 -11 15
0 8 -4 15 -9 15 -5 0 -13 17 -19 38 -9 35 -10 34 -11 -29 -1 -49 -5 -68 -16
-72 -22 -9 -26 7 -24 95 2 77 0 83 -22 100 -33 24 -142 39 -262 36 -68 -2
-110 2 -125 10 -30 17 -19 35 13 20 31 -14 53 -5 66 29 41 108 123 273 136
273 7 0 13 6 13 14 0 20 39 46 67 46 13 0 23 6 23 14 0 20 23 25 119 24 87 0
194 -24 236 -52 19 -12 29 -13 54 -3 25 9 36 9 52 -2 40 -24 57 -22 68 12 13
34 3 47 -36 47 -13 0 -78 12 -145 26 -154 33 -253 30 -375 -11 -80 -28 -82
-28 -110 -10 -16 11 -22 20 -15 23 9 3 9 9 1 25 -20 39 -100 142 -118 151 -12
7 -12 4 3 -12 26 -30 11 -28 -22 3 -14 13 -51 38 -82 55 -107 60 -125 71 -145
93 -25 28 -66 57 -80 57 -5 0 -19 -6 -30 -12z m475 -438 c0 -5 -36 -78 -81
-162 -93 -176 -94 -175 -9 25 37 85 69 147 77 147 7 0 13 -4 13 -10z m699
-549 c-7 -23 -18 -41 -24 -41 -7 0 -38 -12 -69 -26 -32 -14 -59 -24 -61 -22
-3 2 22 16 55 31 45 21 65 37 82 67 28 48 33 45 17 -9z m38 -136 c22 -10 50
-33 66 -56 24 -35 32 -40 55 -35 40 9 59 -7 45 -37 -16 -34 3 -54 28 -31 25
23 42 8 36 -31 -4 -24 1 -42 20 -69 59 -88 66 -150 15 -144 -18 2 -29 11 -34
28 -6 19 -7 18 -3 -9 3 -18 5 -42 5 -52 0 -13 7 -19 24 -19 23 0 24 -2 13 -35
-11 -36 -27 -47 -27 -18 0 27 -14 4 -25 -40 -10 -41 -13 -43 -56 -38 -7 1 -9
11 -5 29 4 17 -4 8 -24 -27 -16 -30 -49 -72 -72 -93 -45 -41 -61 -50 -63 -33
-1 6 -5 18 -10 28 -4 10 -5 31 -1 48 5 26 -2 41 -49 104 -30 40 -62 78 -70 85
-8 7 -15 29 -15 49 0 20 -9 51 -20 69 -24 39 -129 146 -179 183 l-34 25 37 23
c26 17 46 22 67 17 16 -3 29 -2 29 3 0 14 32 23 44 11 17 -17 36 -12 47 13 11
24 74 66 101 67 10 0 35 -7 55 -15z m-327 -380 c13 -24 13 -24 27 -5 17 24 32
25 58 6 19 -14 19 -15 0 -36 -11 -13 -35 -29 -52 -37 -18 -7 -33 -20 -33 -27
0 -36 -63 -60 -98 -37 -11 6 -9 16 7 47 11 21 19 53 17 71 -1 18 0 31 2 28 2
-2 11 2 18 10 18 18 38 11 54 -20z m750 -13 c0 -5 -18 -26 -39 -48 -22 -21
-59 -73 -82 -114 -55 -97 -92 -143 -151 -186 -64 -46 -73 -44 -12 3 69 53 86
75 150 188 65 116 134 196 134 157z m-2451 -326 c-9 -9 -179 -76 -191 -76 -18
1 55 39 117 61 46 17 84 24 74 15z m2461 -52 c0 -27 -4 -34 -20 -34 -15 0 -20
7 -20 25 0 14 5 25 10 25 6 0 10 7 10 16 0 8 5 12 10 9 6 -3 10 -22 10 -41z
m-2360 -16 c0 -24 2 -94 4 -155 3 -102 1 -112 -13 -101 -9 7 0 -5 19 -25 31
-34 58 -47 130 -61 22 -5 28 -16 50 -93 29 -101 30 -154 6 -217 -18 -47 -38
-62 -63 -47 -10 5 -28 4 -49 -5 -80 -33 -184 -40 -167 -10 3 6 1 6 -8 -1 -15
-15 -42 -17 -67 -4 -31 16 -127 51 -139 51 -7 0 -26 -8 -42 -18 l-29 -18 147
-28 c284 -55 431 -20 512 124 11 19 17 26 14 15 -3 -11 -23 -48 -43 -82 -32
-52 -42 -62 -72 -66 -19 -3 -66 -13 -105 -21 -89 -20 -143 -20 -230 1 -38 8
-113 21 -165 28 -52 7 -89 13 -81 14 11 1 11 4 -3 14 -16 11 -17 17 -7 36 13
23 6 126 -9 146 -23 32 -36 109 -36 208 l1 108 50 45 c28 25 43 43 35 39 -8
-4 -6 1 5 10 11 10 40 26 65 38 25 11 56 28 69 38 26 21 86 26 96 8 5 -7 14
-4 27 8 11 10 31 16 44 15 20 -3 24 1 24 22 0 16 6 26 15 26 11 0 15 -12 15
-42z m2310 -58 c0 -5 -4 -10 -10 -10 -5 0 -10 5 -10 10 0 6 5 10 10 10 6 0 10
-4 10 -10z m-643 -67 c9 -16 25 -35 36 -44 11 -9 16 -19 11 -22 -16 -10 -84
61 -84 87 0 16 21 3 37 -21z m168 -18 c1 -22 10 -61 22 -85 32 -69 34 -80 18
-80 -8 0 -15 -6 -15 -12 0 -9 -4 -8 -10 2 -8 13 -10 13 -10 1 0 -11 -4 -9 -15
5 -13 18 -14 17 -15 -16 0 -21 -11 -51 -27 -74 -22 -34 -25 -43 -15 -68 9 -24
8 -30 -10 -39 -18 -10 -19 -12 -3 -29 14 -15 14 -21 3 -40 -10 -18 -10 -24 0
-27 6 -3 12 -18 12 -34 0 -32 -27 -50 -64 -43 -11 2 -25 -5 -32 -15 -13 -18
-54 -35 -54 -23 0 4 -12 8 -27 9 -16 0 -40 4 -56 8 -22 6 -26 4 -22 -7 12 -31
-98 -39 -136 -10 -13 10 -33 22 -43 26 -10 3 -17 9 -14 11 3 3 -20 30 -49 61
-59 60 -64 80 -12 43 18 -13 30 -18 26 -12 -10 16 3 43 22 44 14 1 14 2 -1 6
-26 7 -22 23 5 23 30 0 40 10 26 27 -9 11 3 13 69 13 68 0 80 2 76 15 -4 10 0
15 10 15 9 0 22 11 28 25 9 19 16 23 35 19 19 -5 22 -3 17 10 -9 22 21 53 58
62 20 4 26 9 18 14 -21 13 0 32 28 25 23 -6 20 0 -26 49 -29 30 -52 62 -52 70
0 21 9 20 33 -1 15 -13 19 -14 13 -3 -4 9 -2 8 7 -2 8 -11 34 -20 63 -24 44
-5 47 -4 32 9 -25 20 -22 42 7 55 14 6 25 18 25 25 0 8 11 13 27 12 25 0 27
-4 28 -40z m312 -57 c-3 -7 -5 -2 -5 12 0 14 2 19 5 13 2 -7 2 -19 0 -25z
m-771 -80 c-11 -6 -51 -12 -90 -14 l-71 -3 75 13 c100 17 109 18 86 4z m114
-32 c0 -2 -8 -10 -17 -17 -16 -13 -17 -12 -4 4 13 16 21 21 21 13z m35 -56
c-21 -22 -41 -37 -44 -35 -2 3 13 23 34 45 21 22 41 37 44 35 2 -3 -13 -23
-34 -45z m-546 3 c-60 -78 -102 -121 -149 -158 -66 -51 -93 -61 -109 -41 -10
12 -6 17 26 25 42 12 128 80 193 154 23 26 45 46 48 43 3 -3 -1 -14 -9 -23z
m829 -87 c-7 -8 -15 -12 -17 -11 -5 6 10 25 20 25 5 0 4 -6 -3 -14z m-368 -4
c0 -11 -39 -12 -45 -1 -4 5 5 9 19 9 14 0 26 -4 26 -8z m-919 -46 c-8 -9 -5
-19 14 -36 14 -13 25 -19 25 -14 0 5 5 2 10 -6 7 -11 12 -12 20 -4 17 17 58 5
80 -24 11 -13 20 -22 20 -19 0 4 10 3 23 -2 14 -6 31 -4 50 5 23 13 27 13 27
0 0 -18 21 -35 60 -46 26 -8 31 -6 29 8 -1 9 1 29 5 44 7 25 9 26 27 10 11
-10 28 -33 37 -52 l17 -35 3 28 c2 15 8 27 14 27 5 0 7 7 4 16 -12 31 13 8 58
-53 27 -37 43 -69 40 -78 -4 -8 -1 -15 5 -15 6 0 11 -5 11 -11 0 -6 -8 -8 -19
-4 -12 3 -30 -6 -55 -28 -20 -18 -36 -37 -36 -41 0 -9 -26 -36 -35 -36 -20 0
-57 -52 -71 -98 -14 -48 -18 -53 -40 -49 -15 3 -24 0 -24 -9 0 -14 -38 -30
-47 -20 -3 3 -12 -2 -20 -12 -13 -16 -14 -15 -8 4 5 18 0 22 -26 28 -41 8 -64
8 -56 -1 4 -3 2 -12 -4 -19 -12 -15 -39 -8 -39 11 0 7 -15 24 -32 37 l-33 25
-19 -22 c-11 -13 -27 -20 -37 -18 -19 5 -35 33 -19 33 6 0 10 9 10 20 0 11 -6
20 -14 20 -8 0 -32 20 -54 45 -57 65 -101 208 -74 241 4 5 14 27 21 49 24 76
33 95 47 95 8 0 14 -4 14 -10 0 -21 33 -9 63 23 19 21 32 28 34 19 3 -7 0 -19
-6 -26z m1616 -38 c-3 -7 -5 -2 -5 12 0 14 2 19 5 13 2 -7 2 -19 0 -25z m13
-88 c0 -11 -4 -20 -10 -20 -5 0 -10 9 -10 20 0 11 5 20 10 20 6 0 10 -9 10
-20z m-270 -100 c0 -5 -5 -10 -11 -10 -5 0 -7 5 -4 10 3 6 8 10 11 10 2 0 4
-4 4 -10z m-823 -218 c-34 -35 -117 -90 -117 -79 0 3 22 19 48 36 27 17 59 42
72 56 13 14 26 25 29 25 3 0 -12 -17 -32 -38z m-127 -87 c0 -2 -15 -12 -32
-21 -18 -9 -56 -36 -85 -60 -31 -27 -60 -44 -75 -43 -20 1 -21 2 -3 6 11 3 39
23 63 45 24 22 62 48 85 59 47 21 47 21 47 14z m590 -65 c0 -5 -9 -10 -20 -10
-11 0 -20 5 -20 10 0 6 9 10 20 10 11 0 20 -4 20 -10z"/>
<path d="M2887 919 c7 -7 15 -10 18 -7 3 3 -2 9 -12 12 -14 6 -15 5 -6 -5z"/>
<path d="M2500 735 c0 -12 67 -45 93 -45 27 0 27 1 10 19 -16 16 -103 39 -103
26z"/>
<path d="M1796 735 c4 -8 9 -15 13 -15 4 0 8 7 8 15 0 8 -6 15 -13 15 -8 0
-11 -6 -8 -15z"/>
<path d="M2097 638 c-2 -7 0 -21 5 -32 6 -10 7 -31 4 -47 l-5 -28 33 36 c28
31 31 39 22 59 -12 26 -51 33 -59 12z"/>
<path d="M1463 2700 c3 -8 13 -39 22 -67 9 -29 21 -55 26 -58 5 -4 9 -14 9
-24 0 -9 7 -26 15 -37 13 -18 14 -17 6 11 -10 36 -69 177 -78 185 -3 3 -3 -2
0 -10z"/>
<path d="M1465 2611 c-6 -11 13 -26 22 -17 4 3 1 6 -6 6 -7 0 -9 5 -6 10 3 6
4 10 1 10 -3 0 -7 -4 -11 -9z"/>
<path d="M2080 2480 c0 -11 7 -20 15 -20 17 0 18 2 9 24 -9 23 -24 20 -24 -4z"/>
<path d="M856 2231 c5 -5 20 -12 34 -15 l25 -7 -25 15 c-28 17 -50 21 -34 7z"/>
<path d="M1025 2180 c-11 -5 -18 -9 -15 -9 3 -1 30 -10 60 -21 40 -15 50 -16
36 -5 -11 8 -26 15 -33 15 -7 0 -13 7 -13 15 0 17 -6 18 -35 5z"/>
<path d="M3280 2126 c0 -2 7 -7 16 -10 8 -3 12 -2 9 4 -6 10 -25 14 -25 6z"/>
<path d="M2630 1851 c0 -5 7 -12 16 -15 24 -9 27 -7 10 9 -17 17 -26 19 -26 6z"/>
<path d="M2505 1670 c3 -5 8 -10 11 -10 2 0 4 5 4 10 0 6 -5 10 -11 10 -5 0
-7 -4 -4 -10z"/>
<path d="M1072 1567 c10 -8 16 -16 13 -18 -2 -3 5 -5 15 -6 28 -2 25 4 -12 22
-24 11 -28 12 -16 2z"/>
<path d="M2440 1203 c-13 -15 -12 -16 4 -10 10 4 20 7 22 7 2 0 4 5 4 10 0 15
-13 12 -30 -7z"/>
<path d="M3080 270 c0 -5 4 -10 9 -10 6 0 13 5 16 10 3 6 -1 10 -9 10 -9 0
-16 -4 -16 -10z"/>
<path d="M2780 170 c0 -5 11 -10 25 -10 14 0 25 5 25 10 0 6 -11 10 -25 10
-14 0 -25 -4 -25 -10z"/>
</g>
</svg>
